<mxfile host="65bd71144e">
    <diagram id="WDx_JRhlZY0Ud3fUsgot" name="Page-1">
        <mxGraphModel dx="2016" dy="534" grid="1" gridSize="10" guides="1" tooltips="1" connect="1" arrows="1" fold="1" page="1" pageScale="1" pageWidth="850" pageHeight="1100" math="0" shadow="0">
            <root>
                <mxCell id="0"/>
                <mxCell id="1" parent="0"/>
                <mxCell id="5" style="edgeStyle=none;html=1;entryX=0;entryY=0.5;entryDx=0;entryDy=0;" edge="1" parent="1" source="2" target="4">
                    <mxGeometry relative="1" as="geometry"/>
                </mxCell>
                <mxCell id="2" value="Frontend" style="html=1;whiteSpace=wrap;" vertex="1" parent="1">
                    <mxGeometry x="160" y="200" width="110" height="50" as="geometry"/>
                </mxCell>
                <mxCell id="7" style="edgeStyle=none;html=1;exitX=0;exitY=0.4;exitDx=0;exitDy=0;exitPerimeter=0;" edge="1" parent="1" source="3">
                    <mxGeometry relative="1" as="geometry">
                        <mxPoint x="200" y="190" as="targetPoint"/>
                        <Array as="points">
                            <mxPoint x="200" y="120"/>
                        </Array>
                    </mxGeometry>
                </mxCell>
                <mxCell id="3" value="Queue" style="html=1;whiteSpace=wrap;" vertex="1" parent="1">
                    <mxGeometry x="350" y="100" width="110" height="50" as="geometry"/>
                </mxCell>
                <mxCell id="6" style="edgeStyle=none;html=1;entryX=1;entryY=0.5;entryDx=0;entryDy=0;exitX=0.391;exitY=0.04;exitDx=0;exitDy=0;exitPerimeter=0;" edge="1" parent="1" source="4" target="3">
                    <mxGeometry relative="1" as="geometry">
                        <Array as="points">
                            <mxPoint x="600" y="125"/>
                        </Array>
                    </mxGeometry>
                </mxCell>
                <mxCell id="4" value="Backend" style="html=1;whiteSpace=wrap;" vertex="1" parent="1">
                    <mxGeometry x="560" y="200" width="110" height="50" as="geometry"/>
                </mxCell>
            </root>
        </mxGraphModel>
    </diagram>
</mxfile>